# xmcd
#
# Track frame offsets:
#	150
#	13829
#	36946
#	52473
#	73864
#	84622
#	100998
#	113924
#	126180
#	147743
#
# Disc length: 2119 seconds
#
# Revision: 1
# Processed by: cddbd v1.4PL0 Copyright (c) Steve Scherf et al.
# Submitted via: EasyCDDAExtractor 5.1.0
#
DISCID=9e08450a
DTITLE=Olga Voichenko - Tenderly
DYEAR=1900
DGENRE=Acoustic
TTITLE0=nice work if you can get it
TTITLE1=once i loved
TTITLE2=tenderly
TTITLE3=willow weep for me
TTITLE4=all to soon
TTITLE5=my funny valentine
TTITLE6=watch what happens
TTITLE7=meditation
TTITLE8=misty
TTITLE9=don't get around much anymore
EXTD=
EXTT0=
EXTT1=
EXTT2=
EXTT3=
EXTT4=
EXTT5=
EXTT6=
EXTT7=
EXTT8=
EXTT9=
PLAYORDER=
